<?xml version="1.0" encoding="UTF-8"?>
<svg id="Capa_2" data-name="Capa 2" xmlns="http://www.w3.org/2000/svg" viewBox="0 0 1541.24 380.18">
  <defs>
    <style>
      .cls-1 {
        fill: #fff;
      }
    </style>
  </defs>
  <g id="BACKGROUND">
    <g>
      <g>
        <path class="cls-1" d="M88.17,115.93v175.8c0,14.52,3.08,24.76,9.25,30.75,6.17,5.99,16.87,8.98,32.11,8.98h36.47v41.91h-44.63c-27.58,0-48.26-6.34-62.05-19.05-13.79-12.7-20.68-33.56-20.68-62.59V115.93H0v-40.82H38.64V0h49.53V75.11h77.83v40.82H88.17Z"/>
        <path class="cls-1" d="M591.64,75.11V373.38h-49.53v-44.09c-9.44,15.24-22.59,27.13-39.46,35.65-16.87,8.52-35.47,12.79-55.79,12.79-23.23,0-44.09-4.81-62.59-14.42-18.51-9.61-33.12-24.03-43.81-43.27-10.71-19.23-16.06-42.63-16.06-70.21V75.11h48.99V243.3c0,29.39,7.43,51.98,22.32,67.76,14.87,15.78,35.19,23.68,60.96,23.68s47.35-8.16,62.59-24.49c15.24-16.33,22.86-40.09,22.86-71.3V75.11h49.53Z"/>
        <path class="cls-1" d="M1010.19,102.6c22.49,21.96,33.75,53.61,33.75,94.98v175.8h-48.99V204.65c0-29.75-7.44-52.52-22.32-68.31-14.88-15.78-35.2-23.68-60.96-23.68s-46.9,8.16-62.32,24.49c-15.43,16.33-23.13,40.1-23.13,71.3v164.92h-49.53V75.11h49.53v42.45c9.8-15.24,23.13-27.03,40-35.38,16.87-8.34,35.46-12.52,55.79-12.52,36.28,0,65.67,10.98,88.17,32.93Z"/>
      </g>
      <path class="cls-1" d="M1355.77,380.18c-26.53,0-53.02-2.68-79.04-8.01-11.43-2.35-24.52-5.55-35.15-13.92-12.31-9.69-18.86-24.6-24.12-36.58-17.54-39.95-39.36-89.69-30.28-139.59,13.83-75.95,94.51-120.64,163.63-130.01,16.56-2.26,38.2-3.93,58.73,3.12,39.36,13.51,60.85,52.51,79.48,91.3,18.38,38.22,37.39,77.75,47.26,120.26,6.16,26.54,11.99,75.79-18.17,107.39l-9.8-9.37c25.77-26.98,20.32-71.08,14.77-94.96-9.54-41.05-28.21-79.89-46.27-117.46-17.4-36.21-37.26-72.54-71.67-84.34-17.84-6.13-37.44-4.57-52.5-2.52-64.42,8.75-139.5,49.72-152.12,119.01-8.34,45.84,12.56,93.46,29.35,131.73,4.9,11.14,10.45,23.77,20.09,31.36,8.31,6.54,19.58,9.26,29.49,11.3,32.53,6.66,65.84,9.01,98.99,7.06,17.08-1.03,36.21-3.68,48.59-15.56,9.54-9.15,14.21-23.14,18.34-35.49,18.82-56.35,31.94-114.04,.75-154.3-16.4-21.19-43.15-32.71-61.84-39.53-31.95-11.67-55.52-13.12-74.19-4.57-32.4,14.81-42.89,55.71-48.87,93.76-2.61,16.63-4.37,31.45,.74,44.49,5.07,12.94,17.7,24.15,34.65,30.77,4.8,1.87,9.72,3.29,14.69,4.28l-13.29-33.1c-6.46-16.07-14.5-36.08-11.93-56.48,2.45-19.51,15.91-36.89,36-46.5,21.68-10.38,46.6-9.79,64.98,1.57,16.66,10.3,28.1,27.69,32.21,48.96,4.4,22.81-.66,46.85-13.55,64.31-4.7,6.38-10.35,11.99-16.69,16.79-.5,7.48-2.01,15.22-4.57,22.97-5.25,15.95-14.04,25.7-25.43,28.2-16.12,3.6-31.2-8.13-41.81-32.14-8.67-.94-17.27-2.99-25.54-6.22-20.77-8.11-35.81-21.76-42.35-38.46-6.34-16.18-4.33-33.61-1.51-51.53,6.16-39.18,18.16-86.4,56.62-103.99,29.06-13.26,62.11-3.98,84.47,4.18,20.27,7.39,49.35,20,67.91,43.96,35.09,45.29,21.4,106.99,1.39,166.91-4.39,13.14-9.86,29.51-21.81,40.98-15.56,14.92-37.63,18.12-57.16,19.3-7.82,.47-15.66,.7-23.49,.7Zm-23.16-75.28c5.01,9.31,13.22,20.45,23.52,18.37,8.58-1.89,13.38-12.84,15.47-19.2,1.06-3.21,1.91-6.42,2.56-9.57-12.69,6.25-26.98,9.84-41.55,10.4Zm-6.01-13.44c17.48,.38,34.96-4.26,49.08-13.26-.23-9.54-2.6-18.28-7.02-25.45-7.01-11.35-44.8-19.42-63.34-14.8,1.67,4.68,3.52,9.27,5.29,13.68l15.99,39.83Zm-8.07-68.21c23.65,0,53.02,8.39,61.66,22.37,4.1,6.64,6.82,14.24,8.13,22.45,2.35-2.37,4.53-4.9,6.51-7.58,10.68-14.47,14.85-34.55,11.14-53.7-3.38-17.52-12.63-31.72-26.02-40-14.5-8.94-34.44-9.28-52.02-.88-15.91,7.61-26.53,21.06-28.4,35.96-.97,7.71-.04,15.53,1.84,23.2,4.98-1.24,10.87-1.83,17.15-1.83Z"/>
    </g>
  </g>
</svg>